Simulation
nRows=31
nColumns=15
endheader
time  TH_x TH_y TH_z SC_y  SC_z  SC_x  AC_y  AC_z  AC_x  GH_y  GH_z  GH_yy  EL_x  PS_y
0.0  0.000000  0.000000  0.000000  -24.678378805711894  5.027692733321631  1.83672062625201  53.16046594048544  7.73326962044322  0.30570854645707174  5.626697162293803  11.036108469932174  34.8307556037762  27.08838185161874  120.000000
0.04065934065934069  0.000000  0.000000  0.000000  -23.703668970572792  5.089329443005115  1.6816768453689066  53.302118096838534  7.831808598274651  0.6618570974952658  1.4655116105255934  10.887022607907769  39.9156634955901  26.2484305225375  120.000000
0.08131868131868138  0.000000  0.000000  0.000000  -22.867062201247485  5.069880312495632  1.4072137650629255  53.454153439892785  7.844268887542768  1.0298967170822704  -2.3561881699034806  10.72574810656351  44.262546011364876  25.884735889883718  120.000000
0.12197802197802207  0.000000  0.000000  0.000000  -22.24607011406793  5.011599923504946  1.0261044900656187  53.60392752429935  7.87938395042058  1.4056156379949527  -5.643969064093404  10.617964427938112  47.267767718838535  26.269696207541156  120.000000
0.16263736263736275  0.000000  0.000000  0.000000  -21.8490691972366  4.94904569837849  0.549022383909216  53.7428441656292  8.007160517471975  1.7973002728687382  -8.218132654761256  10.620554795999224  48.49600430308949  27.449441841839434  120.000000
0.20329670329670343  0.000000  0.000000  0.000000  -21.64598027430005  4.881856272082821  -0.0010591424083527922  53.857892981653876  8.264405863626099  2.2098146307007944  -9.82863587430568  10.78804639373587  47.66202893911557  29.265736454350414  120.000000
0.24395604395604414  0.000000  0.000000  0.000000  -21.611314011453338  4.805733124880961  -0.5953465849165007  53.945131806008206  8.668668243206739  2.632154732425428  -10.0346278315693  11.166720449735301  44.462159487739946  31.450304906548375  120.000000
0.2846153846153848  0.000000  0.000000  0.000000  -21.724011657818625  4.734760370673359  -1.197479875000174  54.009973883145214  9.22548393249864  3.044367368300291  -8.4114462676351  11.812310166897394  38.734746371697256  33.70295119548094  120.000000
0.3252747252747255  0.000000  0.000000  0.000000  -21.95816682172532  4.685159112752107  -1.7595468423356035  54.05574336177261  9.923854657512182  3.428915127636335  -4.820594767355157  12.810818430939538  30.675719492504953  35.72558315742518  120.000000
0.3659340659340662  0.000000  0.000000  0.000000  -22.276281818431432  4.64935031020029  -2.2365178409297797  54.0918652758291  10.735139943120702  3.768952667060266  0.4637026647674747  14.282782781716294  20.912973792434922  37.241755528610696  120.000000
0.40659340659340687  0.000000  0.000000  0.000000  -22.622780746581412  4.600537972609779  -2.6058847312444375  54.13813526534863  11.614941128128489  4.055073581208892  6.7425470163026855  16.350248148301233  10.479834354470148  38.01579265915833  120.000000
0.44725274725274755  0.000000  0.000000  0.000000  -22.928646908770627  4.518858936272886  -2.8686037985870714  54.21174393541397  12.5019048868024  4.285897925383895  13.124663176692664  19.069242772528757  0.5539281473337447  37.88009577569118  120.000000
0.4879120879120883  0.000000  0.000000  0.000000  -23.1260917264282  4.409034205166165  -3.0431978403411097  54.31075658669943  13.326050872134546  4.469373922215915  18.881548011395832  22.366683832802288  -7.914168113359285  36.75789054119419  120.000000
0.5285714285714289  0.000000  0.000000  0.000000  -23.151187944284594  4.290676544064593  -3.1594221804551714  54.410287492206734  14.024905536788957  4.61907527422705  23.633267294468105  26.024564521978682  -14.395015910470148  34.66996670919348  120.000000
0.5692307692307697  0.000000  0.000000  0.000000  -22.95386857106056  4.18491536194444  -3.2501798655948715  54.477749663374425  14.556535605056544  4.747886644430558  27.310412634862068  29.717505630467322  -18.760015714121895  31.747860045177152  120.000000
0.6098901098901103  0.000000  0.000000  0.000000  -22.53040421241257  4.111217073446421  -3.3497607727383483  54.48720851532082  14.906922240811188  4.868145833339868  30.015494340541014  33.08331529347126  -21.187564605503894  28.2782244250482  120.000000
0.650549450549451  0.000000  0.000000  0.000000  -21.94308386930118  4.076173110218921  -3.490681267809552  54.42306625840992  15.086130764346786  4.984321470558522  31.886763356055795  35.80275115762431  -22.072627417034493  24.737275171669157  120.000000
0.6912087912087918  0.000000  0.000000  0.000000  -21.302005162351936  4.071009363767119  -3.6987197305067516  54.278636157401856  15.12159220056938  5.089092914686256  33.02058642822252  37.65626427496446  -21.949566949048407  21.750190586698142  120.000000
0.7318681318681324  0.000000  0.000000  0.000000  -20.73580683945361  4.083787355995359  -3.988682206104534  54.05274351226372  15.058078450954413  5.169349443048246  33.45654288934562  38.54600124525917  -21.390263055726063  19.986788869786054  120.000000
0.7725274725274731  0.000000  0.000000  0.000000  -20.36535052143517  4.106079291552572  -4.3647944822733376  53.74264409786096  14.95810027379966  5.213681618387629  33.20377552587625  38.48773513970787  -20.883131110143097  20.019936803514334  120.000000
0.8131868131868137  0.000000  0.000000  0.000000  -20.268488449679573  4.133012082817725  -4.817018604802301  53.3467354237506  14.879712723021909  5.219781932364644  32.28553688324979  37.57968202775113  -20.729276555751337  22.143810365219156  120.000000
0.8538461538461545  0.000000  0.000000  0.000000  -20.447396887407834  4.152738602434101  -5.320804557352966  52.87443700072308  14.854945408775402  5.191659663141692  30.755146749364158  35.965284068876684  -20.96844249539879  26.29561290497474  120.000000
0.8945054945054951  0.000000  0.000000  0.000000  -20.830892708119617  4.146516940805962  -5.858209467839089  52.35246812120299  14.905382069636591  5.139135821145343  28.683866592826156  33.81771048972863  -21.391254883736554  32.139594638809804  120.000000
0.9351648351648358  0.000000  0.000000  0.000000  -21.31385038966167  4.111462794195181  -6.419238334496647  51.82083439528783  15.047591048508142  5.090198229220534  26.142796166789147  31.352314335971908  -21.64970002833103  39.184961498839684  120.000000
0.9758241758241766  0.000000  0.000000  0.000000  -21.790344527127903  4.063807481882272  -6.979790865836788  51.31623815936783  15.289280978807795  5.076298498781284  23.18182128578578  28.829462742063328  -21.39997936235143  46.909799658180994  120.000000
1.0164835164835173  0.000000  0.000000  0.000000  -22.17766913806661  4.026811335935519  -7.497289591584208  50.85890960926215  15.63385341767043  5.116340451874016  19.86760084284699  26.5213643217047  -20.45613722956312  54.857090269964196  120.000000
1.0571428571428578  0.000000  0.000000  0.000000  -22.440402194700276  4.0282220108916045  -7.922078571657729  50.458935685557734  16.077714570924417  5.221574086003406  16.403776895794884  24.65951483797353  -18.954902220169544  62.668614984345695  120.000000
1.0978021978021986  0.000000  0.000000  0.000000  -22.590255468907397  4.096275301845057  -8.20514587556009  50.12357446091944  16.60957362033581  5.399652143088021  13.211650811882043  23.388203462041325  -17.403769889054804  70.07831081778619  120.000000
1.1384615384615393  0.000000  0.000000  0.000000  -22.66477186123272  4.255818619763779  -8.301280965740485  49.859774557882524  17.212704829331564  5.656816169890944  10.857512935616585  22.750200029356748  -16.534979451168905  76.87802626927447  120.000000
1.17912087912088  0.000000  0.000000  0.000000  -22.700825801379075  4.525685882268834  -8.173801018188474  49.671227235480515  17.864850347349226  6.00027955270211  9.837525405485136  22.715885308713396  -17.018108747408945  82.88940751778733  120.000000
1.2197802197802206  0.000000  0.000000  0.000000  -22.714082548159755  4.915669878173556  -7.80108140221048  49.55260238773186  18.536430544419126  6.436160815255458  10.360080222934641  23.23769491981775  -19.187015549879288  87.95105883182981  120.000000
